<?xml version="1.0" encoding="UTF-8" standalone="no" ?>
<COLLADA xmlns="http://www.collada.org/2005/11/COLLADASchema" version="1.4.1">
    <asset>
        <contributor>
            <authoring_tool>SketchUp 15.0.9350</authoring_tool>
        </contributor>
        <created>2015-03-08T15:56:00Z</created>
        <modified>2015-03-08T15:56:00Z</modified>
        <unit meter="0.0254" name="inch" />
        <up_axis>Z_UP</up_axis>
    </asset>
    <library_visual_scenes>
        <visual_scene id="ID1">
            <node name="SketchUp">
                <instance_geometry url="#ID47">
                    <bind_material>
                        <technique_common>
                            <instance_material symbol="Material2" target="#ID6">
                                <bind_vertex_input semantic="UVSET0" input_semantic="TEXCOORD" input_set="0" />
                            </instance_material>
                        </technique_common>
                    </bind_material>
                </instance_geometry>
                <instance_geometry url="#ID53">
                    <bind_material>
                        <technique_common>
                            <instance_material symbol="Material2" target="#ID6">
                                <bind_vertex_input semantic="UVSET0" input_semantic="TEXCOORD" input_set="0" />
                            </instance_material>
                        </technique_common>
                    </bind_material>
                </instance_geometry>
                <node id="ID2" name="instance_0">
                    <matrix>1 0 0 623.6568 0 1 0 0 0 0 1 -64.125 0 0 0 1</matrix>
                    <instance_node url="#ID3" />
                </node>
                <node id="ID30" name="instance_1">
                    <matrix>1 0 0 0 0 1 0 0 0 0 1 -64.125 0 0 0 1</matrix>
                    <instance_node url="#ID3" />
                </node>
                <node id="ID31" name="instance_2">
                    <matrix>1 0 0 621.1075 0 1 0 588.3999 0 0 1 -64.125 0 0 0 1</matrix>
                    <instance_node url="#ID3" />
                </node>
                <node id="ID32" name="instance_3">
                    <matrix>1 0 0 0 0 1 0 594.1172 0 0 1 -64.125 0 0 0 1</matrix>
                    <instance_node url="#ID3" />
                </node>
                <node id="ID33" name="instance_4">
                    <matrix>1.10962 0.02905641 0 607.2257 -0.02905641 1.10962 0 606.4173 0 0 1.11 0 0 0 0 1</matrix>
                    <instance_node url="#ID34" />
                </node>
                <node id="ID41" name="instance_5">
                    <matrix>0.8934321 -0.658695 0 168.042 0.658695 0.8934321 0 637.9946 0 0 1.11 0 0 0 0 1</matrix>
                    <instance_node url="#ID34" />
                </node>
                <node id="ID42" name="instance_6">
                    <matrix>0.975487 -0.5296462 0 259.7629 0.5296462 0.975487 0 655.6365 0 0 1.11 0 0 0 0 1</matrix>
                    <instance_node url="#ID34" />
                </node>
                <node id="ID43" name="instance_7">
                    <matrix>1.037657 -0.3941687 0 350.6718 0.3941687 1.037657 0 660.5401 0 0 1.11 0 0 0 0 1</matrix>
                    <instance_node url="#ID34" />
                </node>
                <node id="ID44" name="instance_8">
                    <matrix>1.079331 -0.2591244 0 436.7342 0.2591244 1.079331 0 653.8991 0 0 1.11 0 0 0 0 1</matrix>
                    <instance_node url="#ID34" />
                </node>
                <node id="ID45" name="instance_9">
                    <matrix>1.103715 -0.1179531 0 522.3959 0.1179531 1.103715 0 636.0619 0 0 1.11 0 0 0 0 1</matrix>
                    <instance_node url="#ID34" />
                </node>
                <node id="ID46" name="instance_10">
                    <matrix>0.7848885 -0.7848885 0 71.99717 0.7848885 0.7848885 0 604.6657 0 0 1.11 0 0 0 0 1</matrix>
                    <instance_node url="#ID34" />
                </node>
            </node>
        </visual_scene>
    </library_visual_scenes>
    <library_nodes>
        <node id="ID3" name="qic">
            <instance_geometry url="#ID4">
                <bind_material>
                    <technique_common>
                        <instance_material symbol="Material2" target="#ID6">
                            <bind_vertex_input semantic="UVSET0" input_semantic="TEXCOORD" input_set="0" />
                        </instance_material>
                    </technique_common>
                </bind_material>
            </instance_geometry>
            <instance_geometry url="#ID12">
                <bind_material>
                    <technique_common>
                        <instance_material symbol="Material2" target="#ID6">
                            <bind_vertex_input semantic="UVSET0" input_semantic="TEXCOORD" input_set="0" />
                        </instance_material>
                    </technique_common>
                </bind_material>
            </instance_geometry>
            <instance_geometry url="#ID18">
                <bind_material>
                    <technique_common>
                        <instance_material symbol="Material2" target="#ID6">
                            <bind_vertex_input semantic="UVSET0" input_semantic="TEXCOORD" input_set="0" />
                        </instance_material>
                    </technique_common>
                </bind_material>
            </instance_geometry>
            <instance_geometry url="#ID24">
                <bind_material>
                    <technique_common>
                        <instance_material symbol="Material2" target="#ID6">
                            <bind_vertex_input semantic="UVSET0" input_semantic="TEXCOORD" input_set="0" />
                        </instance_material>
                    </technique_common>
                </bind_material>
            </instance_geometry>
        </node>
        <node id="ID34" name="Component_1">
            <instance_geometry url="#ID35">
                <bind_material>
                    <technique_common>
                        <instance_material symbol="Material2" target="#ID6">
                            <bind_vertex_input semantic="UVSET0" input_semantic="TEXCOORD" input_set="0" />
                        </instance_material>
                    </technique_common>
                </bind_material>
            </instance_geometry>
        </node>
    </library_nodes>
    <library_geometries>
        <geometry id="ID4">
            <mesh>
                <source id="ID7">
                    <float_array id="ID10" count="39">76.71824 9.5 0 0 86.21824 0 0 9.5 0 76.71824 86.21824 0 0 9.5 -30.90945 0 86.21824 -30.90945 59.59324 9.5 -30.90945 76.71824 9.5 -30.90945 76.71824 86.21824 -30.90945 17.125 69.09324 -30.90945 59.59324 69.09324 -30.90945 59.59324 26.625 -30.90945 17.125 26.625 -30.90945</float_array>
                    <technique_common>
                        <accessor count="13" source="#ID10" stride="3">
                            <param name="X" type="float" />
                            <param name="Y" type="float" />
                            <param name="Z" type="float" />
                        </accessor>
                    </technique_common>
                </source>
                <source id="ID8">
                    <float_array id="ID11" count="39">0.5773503 -0.5773503 0.5773503 -0.5773503 0.5773503 0.5773503 -0.5773503 -0.5773503 0.5773503 0.5773503 0.5773503 0.5773503 -0.5773503 -0.5773503 -0.5773503 -0.5773503 0.5773503 -0.5773503 0 -0.7071068 -0.7071068 0.5773503 -0.5773503 -0.5773503 0.5773503 0.5773503 -0.5773503 -0.3015113 0.3015113 -0.904534 0.3015113 0.3015113 -0.904534 0.3015113 -0.3015113 -0.904534 -0.3015113 -0.3015113 -0.904534</float_array>
                    <technique_common>
                        <accessor count="13" source="#ID11" stride="3">
                            <param name="X" type="float" />
                            <param name="Y" type="float" />
                            <param name="Z" type="float" />
                        </accessor>
                    </technique_common>
                </source>
                <vertices id="ID9">
                    <input semantic="POSITION" source="#ID7" />
                    <input semantic="NORMAL" source="#ID8" />
                </vertices>
                <triangles count="20" material="Material2">
                    <input offset="0" semantic="VERTEX" source="#ID9" />
                    <p>0 1 2 1 0 3 1 4 2 4 1 5 0 6 7 6 0 4 4 0 2 8 0 7 0 8 3 1 8 5 8 1 3 5 9 4 9 5 8 9 8 10 10 8 11 11 8 6 6 8 7 4 12 6 12 4 9 6 12 11</p>
                </triangles>
            </mesh>
        </geometry>
        <geometry id="ID12">
            <mesh>
                <source id="ID13">
                    <float_array id="ID16" count="54">68.71824 78.21824 -194.9094 68.71824 17.5 -95.97195 68.71824 17.5 -194.9094 68.71824 78.21824 -95.97195 59.59324 17.5 -194.9094 8 17.5 -194.9094 8 17.5 -95.97195 59.59324 17.5 -95.97195 8 78.21824 -194.9094 17.125 69.09324 -194.9094 59.59324 69.09324 -194.9094 59.59324 26.625 -194.9094 17.125 26.625 -194.9094 8 78.21824 -95.97195 17.125 26.625 -95.97195 59.59324 26.625 -95.97195 59.59324 69.09324 -95.97195 17.125 69.09324 -95.97195</float_array>
                    <technique_common>
                        <accessor count="18" source="#ID16" stride="3">
                            <param name="X" type="float" />
                            <param name="Y" type="float" />
                            <param name="Z" type="float" />
                        </accessor>
                    </technique_common>
                </source>
                <source id="ID14">
                    <float_array id="ID17" count="54">0.5773503 0.5773503 -0.5773503 0.5773503 -0.5773503 0.5773503 0.5773503 -0.5773503 -0.5773503 0.5773503 0.5773503 0.5773503 0 -0.7071068 -0.7071068 -0.5773503 -0.5773503 -0.5773503 -0.5773503 -0.5773503 0.5773503 0 -0.7071068 0.7071068 -0.5773503 0.5773503 -0.5773503 -0.3015113 0.3015113 -0.904534 0.3015113 0.3015113 -0.904534 0.3015113 -0.3015113 -0.904534 -0.3015113 -0.3015113 -0.904534 -0.5773503 0.5773503 0.5773503 -0.3015113 -0.3015113 0.904534 0.3015113 -0.3015113 0.904534 0.3015113 0.3015113 0.904534 -0.3015113 0.3015113 0.904534</float_array>
                    <technique_common>
                        <accessor count="18" source="#ID17" stride="3">
                            <param name="X" type="float" />
                            <param name="Y" type="float" />
                            <param name="Z" type="float" />
                        </accessor>
                    </technique_common>
                </source>
                <vertices id="ID15">
                    <input semantic="POSITION" source="#ID13" />
                    <input semantic="NORMAL" source="#ID14" />
                </vertices>
                <triangles count="28" material="Material2">
                    <input offset="0" semantic="VERTEX" source="#ID15" />
                    <p>0 1 2 1 0 3 1 4 2 4 1 5 5 1 6 6 1 7 8 9 5 9 8 0 9 0 10 10 0 11 11 0 4 4 0 2 5 12 4 12 5 9 4 12 11 13 0 8 0 13 3 6 14 13 14 6 7 14 7 15 15 7 1 15 1 16 13 17 3 17 13 14 3 17 16 3 16 1 13 5 6 5 13 8</p>
                </triangles>
            </mesh>
        </geometry>
        <geometry id="ID18">
            <mesh>
                <source id="ID19">
                    <float_array id="ID22" count="24">59.59324 69.09324 -95.97195 59.59324 26.625 -30.90945 59.59324 26.625 -95.97195 59.59324 69.09324 -30.90945 17.125 26.625 -95.97195 17.125 26.625 -30.90945 17.125 69.09324 -30.90945 17.125 69.09324 -95.97195</float_array>
                    <technique_common>
                        <accessor count="8" source="#ID22" stride="3">
                            <param name="X" type="float" />
                            <param name="Y" type="float" />
                            <param name="Z" type="float" />
                        </accessor>
                    </technique_common>
                </source>
                <source id="ID20">
                    <float_array id="ID23" count="24">0.3015113 0.3015113 0.904534 0.3015113 -0.3015113 -0.904534 0.3015113 -0.3015113 0.904534 0.3015113 0.3015113 -0.904534 -0.3015113 -0.3015113 0.904534 -0.3015113 -0.3015113 -0.904534 -0.3015113 0.3015113 -0.904534 -0.3015113 0.3015113 0.904534</float_array>
                    <technique_common>
                        <accessor count="8" source="#ID23" stride="3">
                            <param name="X" type="float" />
                            <param name="Y" type="float" />
                            <param name="Z" type="float" />
                        </accessor>
                    </technique_common>
                </source>
                <vertices id="ID21">
                    <input semantic="POSITION" source="#ID19" />
                    <input semantic="NORMAL" source="#ID20" />
                </vertices>
                <triangles count="8" material="Material2">
                    <input offset="0" semantic="VERTEX" source="#ID21" />
                    <p>0 1 2 1 0 3 1 4 2 4 1 5 6 0 7 0 6 3 6 4 5 4 6 7</p>
                </triangles>
            </mesh>
        </geometry>
        <geometry id="ID24">
            <mesh>
                <source id="ID25">
                    <float_array id="ID28" count="213">59.59324 69.09324 -561.375 59.59324 26.625 -524.0571 59.59324 26.625 -561.375 59.59324 69.09324 -524.0571 17.125 26.625 -561.375 17.125 26.625 -524.0571 17.125 69.09324 -561.375 17.125 69.09324 -524.0571 62.28611 71.78611 -521.236 62.28611 23.93214 -521.236 14.43214 23.93214 -521.236 59.59324 23.93214 -521.236 14.43214 71.78611 -521.236 64.56348 74.06348 -518.07 64.56348 21.65476 -518.07 12.15476 21.65476 -518.07 59.59324 21.65476 -518.07 12.15476 74.06348 -518.07 66.3817 75.8817 -514.6197 66.3817 19.83654 -514.6197 10.33654 19.83654 -514.6197 59.59324 19.83654 -514.6197 10.33654 75.8817 -514.6197 67.70592 77.20592 -510.9514 67.70592 18.51232 -510.9514 9.012323 18.51232 -510.9514 59.59324 18.51232 -510.9514 9.012323 77.20592 -510.9514 68.51074 78.01074 -507.1353 68.51074 17.7075 -507.1353 8.2075 17.7075 -507.1353 59.59324 17.7075 -507.1353 8.2075 78.01074 -507.1353 68.78074 78.28074 -503.2446 68.78074 17.4375 -503.2446 7.9375 17.4375 -503.2446 59.59324 17.4375 -503.2446 7.9375 78.28074 -503.2446 68.51074 17.7075 -499.354 68.51074 78.01074 -499.354 8.2075 17.7075 -499.354 59.59324 17.7075 -499.354 8.2075 78.01074 -499.354 67.70592 18.51232 -495.5379 67.70592 77.20592 -495.5379 9.012323 18.51232 -495.5379 59.59324 18.51232 -495.5379 9.012323 77.20592 -495.5379 66.3817 19.83654 -491.8696 66.3817 75.8817 -491.8696 10.33654 19.83654 -491.8696 59.59324 19.83654 -491.8696 10.33654 75.8817 -491.8696 64.56348 21.65476 -488.4193 64.56348 74.06348 -488.4193 12.15476 21.65476 -488.4193 59.59324 21.65476 -488.4193 12.15476 74.06348 -488.4193 62.28611 23.93214 -485.2533 62.28611 71.78611 -485.2533 14.43214 23.93214 -485.2533 59.59324 23.93214 -485.2533 14.43214 71.78611 -485.2533 59.59324 26.625 -482.4321 59.59324 69.09324 -482.4321 17.125 26.625 -482.4321 17.125 69.09324 -482.4321 59.59324 26.625 -194.9094 59.59324 69.09324 -194.9094 17.125 26.625 -194.9094 17.125 69.09324 -194.9094</float_array>
                    <technique_common>
                        <accessor count="71" source="#ID28" stride="3">
                            <param name="X" type="float" />
                            <param name="Y" type="float" />
                            <param name="Z" type="float" />
                        </accessor>
                    </technique_common>
                </source>
                <source id="ID26">
                    <float_array id="ID29" count="213">0.5773503 0.5773503 -0.5773503 0.5859449 -0.5859449 -0.5597652 0.5773503 -0.5773503 -0.5773503 0.5859449 0.5859449 -0.5597652 -0.5773503 -0.5773503 -0.5773503 -0.5859449 -0.5859449 -0.5597652 -0.5773503 0.5773503 -0.5773503 -0.5859449 0.5859449 -0.5597652 0.4723433 0.4723433 -0.7441664 0.4723433 -0.4723433 -0.7441664 -0.4723433 -0.4723433 -0.7441664 1.380994e-016 -0.7694246 -0.6387376 -0.4723433 0.4723433 -0.7441664 0.5432906 0.5432906 -0.6400552 0.5432906 -0.5432906 -0.6400552 -0.5432906 -0.5432906 -0.6400552 1.374855e-016 -0.8502769 -0.5263356 -0.5432906 0.5432906 -0.6400552 0.6076774 0.6076774 -0.5113281 0.6076774 -0.6076774 -0.5113281 -0.6076774 -0.6076774 -0.5113281 1.063266e-016 -0.9148283 -0.4038431 -0.6076774 0.6076774 -0.5113281 0.6601782 0.6601782 -0.3582312 0.6601782 -0.6601782 -0.3582312 -0.6601782 -0.6601782 -0.3582312 3.590769e-017 -0.9618412 -0.2736084 -0.6601782 0.6601782 -0.3582312 0.694911 0.694911 -0.1849255 0.694911 -0.694911 -0.1849255 -0.694911 -0.694911 -0.1849255 1.686352e-020 -0.9904144 -0.1381282 -0.694911 0.694911 -0.1849255 0.7071068 0.7071068 1.349396e-015 0.7071068 -0.7071068 1.362497e-015 -0.7071068 -0.7071068 1.359222e-015 -1.848566e-019 -1 -1.645798e-010 -0.7071068 0.7071068 1.349396e-015 0.694911 -0.694911 0.1849255 0.694911 0.694911 0.1849255 -0.694911 -0.694911 0.1849255 8.087735e-020 -0.9904144 0.1381282 -0.694911 0.694911 0.1849255 0.6601782 -0.6601782 0.3582312 0.6601782 0.6601782 0.3582312 -0.6601782 -0.6601782 0.3582312 3.672528e-017 -0.9618412 0.2736084 -0.6601782 0.6601782 0.3582312 0.6076774 -0.6076774 0.5113281 0.6076774 0.6076774 0.5113281 -0.6076774 -0.6076774 0.5113281 1.075164e-016 -0.9148283 0.4038431 -0.6076774 0.6076774 0.5113281 0.5432906 -0.5432906 0.6400552 0.5432906 0.5432906 0.6400552 -0.5432906 -0.5432906 0.6400552 1.385163e-016 -0.8502769 0.5263356 -0.5432906 0.5432906 0.6400552 0.4723433 -0.4723433 0.7441664 0.4723433 0.4723433 0.7441664 -0.4723433 -0.4723433 0.7441664 1.388961e-016 -0.7694246 0.6387376 -0.4723433 0.4723433 0.7441664 0.5859449 -0.5859449 0.5597652 0.5859449 0.5859449 0.5597652 -0.5859449 -0.5859449 0.5597652 -0.5859449 0.5859449 0.5597652 0.3015113 -0.3015113 -0.904534 0.3015113 0.3015113 -0.904534 -0.3015113 -0.3015113 -0.904534 -0.3015113 0.3015113 -0.904534</float_array>
                    <technique_common>
                        <accessor count="71" source="#ID29" stride="3">
                            <param name="X" type="float" />
                            <param name="Y" type="float" />
                            <param name="Z" type="float" />
                        </accessor>
                    </technique_common>
                </source>
                <vertices id="ID27">
                    <input semantic="POSITION" source="#ID25" />
                    <input semantic="NORMAL" source="#ID26" />
                </vertices>
                <triangles count="136" material="Material2">
                    <input offset="0" semantic="VERTEX" source="#ID27" />
                    <p>0 1 2 1 0 3 1 4 2 4 1 5 0 4 6 4 0 2 7 0 6 0 7 3 1 8 9 8 1 3 7 4 5 4 7 6 9 5 1 5 9 10 10 9 11 12 3 7 3 12 8 9 13 14 13 9 8 12 5 10 5 12 7 14 11 9 11 14 10 10 14 15 15 14 16 17 8 12 8 17 13 14 18 19 18 14 13 17 10 15 10 17 12 19 16 14 16 19 15 15 19 20 20 19 21 22 13 17 13 22 18 19 23 24 23 19 18 22 15 20 15 22 17 24 21 19 21 24 20 20 24 25 25 24 26 27 18 22 18 27 23 24 28 29 28 24 23 27 20 25 20 27 22 29 26 24 26 29 25 25 29 30 30 29 31 32 23 27 23 32 28 29 33 34 33 29 28 32 25 30 25 32 27 34 31 29 31 34 30 30 34 35 35 34 36 37 28 32 28 37 33 33 38 34 38 33 39 37 30 35 30 37 32 38 36 34 36 38 35 35 38 40 40 38 41 42 33 37 33 42 39 39 43 38 43 39 44 40 37 35 37 40 42 43 41 38 41 43 40 40 43 45 45 43 46 47 39 42 39 47 44 44 48 43 48 44 49 45 42 40 42 45 47 48 46 43 46 48 45 45 48 50 50 48 51 52 44 47 44 52 49 49 53 48 53 49 54 50 47 45 47 50 52 53 51 48 51 53 50 50 53 55 55 53 56 57 49 52 49 57 54 54 58 53 58 54 59 55 52 50 52 55 57 58 56 53 56 58 55 55 58 60 60 58 61 62 54 57 54 62 59 59 63 58 63 59 64 60 57 55 57 60 62 63 61 58 61 63 60 60 63 65 66 59 62 59 66 64 64 67 63 67 64 68 65 62 60 62 65 66 67 65 63 65 67 69 70 64 66 64 70 68 70 65 69 65 70 66</p>
                </triangles>
            </mesh>
        </geometry>
        <geometry id="ID35">
            <mesh>
                <source id="ID36">
                    <float_array id="ID39" count="144">0.7114049 26.28178 1.136868e-013 0.7114049 15.47447 1.136868e-013 5.684342e-013 20.87812 1.136868e-013 2.797138 31.31719 1.136868e-013 2.797138 10.43906 1.136868e-013 6.115061 35.64119 1.136868e-013 6.115061 6.115061 1.136868e-013 10.43906 2.797138 1.136868e-013 10.43906 38.95911 1.136868e-013 15.47447 41.04485 1.136868e-013 15.47447 0.7114049 1.136868e-013 20.87813 41.75625 1.136868e-013 20.87813 -1.705303e-013 1.136868e-013 26.28178 0.7114049 1.136868e-013 26.28178 41.04485 1.136868e-013 31.31719 2.797138 1.136868e-013 31.31719 38.95911 1.136868e-013 35.64119 6.115061 1.136868e-013 35.64119 35.64119 1.136868e-013 38.95911 31.31719 1.136868e-013 38.95911 10.43906 1.136868e-013 41.04485 26.28178 1.136868e-013 41.04485 15.47447 1.136868e-013 41.75625 20.87812 1.136868e-013 38.95911 10.43906 651.8406 41.04485 15.47447 651.8406 35.64119 6.115061 651.8406 31.31719 2.797138 651.8406 26.28178 0.7114049 651.8406 20.87813 -1.705303e-013 651.8406 15.47447 0.7114049 651.8406 10.43906 2.797138 651.8406 6.115061 6.115061 651.8406 2.797138 10.43906 651.8406 0.7114049 15.47447 651.8406 5.684342e-013 20.87812 651.8406 0.7114049 26.28178 651.8406 2.797138 31.31719 651.8406 6.115061 35.64119 651.8406 10.43906 38.95911 651.8406 15.47447 41.04485 651.8406 20.87813 41.75625 651.8406 26.28178 41.04485 651.8406 31.31719 38.95911 651.8406 35.64119 35.64119 651.8406 38.95911 31.31719 651.8406 41.04485 26.28178 651.8406 41.75625 20.87812 651.8406</float_array>
                    <technique_common>
                        <accessor count="48" source="#ID39" stride="3">
                            <param name="X" type="float" />
                            <param name="Y" type="float" />
                            <param name="Z" type="float" />
                        </accessor>
                    </technique_common>
                </source>
                <source id="ID37">
                    <float_array id="ID40" count="144">-0.7092353 0.190039 -0.6788744 -0.7092353 -0.190039 -0.6788744 -0.7342544 3.271511e-017 -0.6788744 -0.635883 0.3671272 -0.6788744 -0.635883 -0.3671272 -0.6788744 -0.5191963 0.5191963 -0.6788744 -0.5191963 -0.5191963 -0.6788744 -0.3671272 -0.635883 -0.6788744 -0.3671272 0.635883 -0.6788744 -0.190039 0.7092353 -0.6788744 -0.190039 -0.7092353 -0.6788744 -1.962907e-017 0.7342544 -0.6788744 1.962907e-017 -0.7342544 -0.6788744 0.190039 -0.7092353 -0.6788744 0.190039 0.7092353 -0.6788744 0.3671272 -0.635883 -0.6788744 0.3671272 0.635883 -0.6788744 0.5191963 -0.5191963 -0.6788744 0.5191963 0.5191963 -0.6788744 0.635883 0.3671272 -0.6788744 0.635883 -0.3671272 -0.6788744 0.7092353 0.190039 -0.6788744 0.7092353 -0.190039 -0.6788744 0.7342544 -3.271511e-017 -0.6788744 0.635883 -0.3671272 0.6788744 0.7092353 -0.190039 0.6788744 0.5191963 -0.5191963 0.6788744 0.3671272 -0.635883 0.6788744 0.190039 -0.7092353 0.6788744 1.962907e-017 -0.7342544 0.6788744 -0.190039 -0.7092353 0.6788744 -0.3671272 -0.635883 0.6788744 -0.5191963 -0.5191963 0.6788744 -0.635883 -0.3671272 0.6788744 -0.7092353 -0.190039 0.6788744 -0.7342544 3.271511e-017 0.6788744 -0.7092353 0.190039 0.6788744 -0.635883 0.3671272 0.6788744 -0.5191963 0.5191963 0.6788744 -0.3671272 0.635883 0.6788744 -0.190039 0.7092353 0.6788744 -1.962907e-017 0.7342544 0.6788744 0.190039 0.7092353 0.6788744 0.3671272 0.635883 0.6788744 0.5191963 0.5191963 0.6788744 0.635883 0.3671272 0.6788744 0.7092353 0.190039 0.6788744 0.7342544 -3.271511e-017 0.6788744</float_array>
                    <technique_common>
                        <accessor count="48" source="#ID40" stride="3">
                            <param name="X" type="float" />
                            <param name="Y" type="float" />
                            <param name="Z" type="float" />
                        </accessor>
                    </technique_common>
                </source>
                <vertices id="ID38">
                    <input semantic="POSITION" source="#ID36" />
                    <input semantic="NORMAL" source="#ID37" />
                </vertices>
                <triangles count="92" material="Material2">
                    <input offset="0" semantic="VERTEX" source="#ID38" />
                    <p>0 1 2 1 0 3 1 3 4 4 3 5 4 5 6 6 5 7 7 5 8 7 8 9 7 9 10 10 9 11 10 11 12 12 11 13 13 11 14 13 14 15 15 14 16 15 16 17 17 16 18 17 18 19 17 19 20 20 19 21 20 21 22 22 21 23 22 24 20 24 22 25 20 26 17 26 20 24 26 15 17 15 26 27 27 13 15 13 27 28 28 12 13 12 28 29 29 10 12 10 29 30 30 7 10 7 30 31 31 6 7 6 31 32 33 6 32 6 33 4 34 4 33 4 34 1 35 1 34 1 35 2 36 2 35 2 36 0 37 0 36 0 37 3 38 3 37 3 38 5 38 8 5 8 38 39 39 9 8 9 39 40 40 11 9 11 40 41 41 14 11 14 41 42 42 16 14 16 42 43 43 18 16 18 43 44 18 45 19 45 18 44 19 46 21 46 19 45 21 47 23 47 21 46 23 25 22 25 23 47 34 36 35 36 34 37 37 34 33 37 33 38 38 33 32 38 32 31 38 31 39 39 31 40 40 31 30 40 30 41 41 30 29 41 29 28 41 28 42 42 28 27 42 27 43 43 27 26 43 26 44 44 26 24 44 24 45 45 24 46 46 24 25 46 25 47</p>
                </triangles>
            </mesh>
        </geometry>
        <geometry id="ID47">
            <mesh>
                <source id="ID48">
                    <float_array id="ID51" count="138">49.35974 720.973 -64.125 0 0 -64.125 0 679.7075 -64.125 700.375 0 -64.125 103.5349 755.6759 -64.125 161.6582 783.2606 -64.125 222.7993 803.2855 -64.125 285.9795 815.4301 -64.125 350.1875 819.5 -64.125 414.3955 815.4301 -64.125 477.5757 803.2855 -64.125 538.7168 783.2606 -64.125 596.8401 755.6759 -64.125 651.0153 720.973 -64.125 700.375 679.7075 -64.125 0 679.7075 -40.58033 0 0 -40.58033 49.35974 720.973 -40.58033 103.5349 755.6759 -40.58033 161.6582 783.2606 -40.58033 222.7993 803.2855 -40.58033 285.9795 815.4301 -40.58033 350.1875 819.5 -40.58033 414.3955 815.4301 -40.58033 477.5757 803.2855 -40.58033 538.7168 783.2606 -40.58033 596.8401 755.6759 -40.58033 651.0153 720.973 -40.58033 700.375 679.7075 -40.58033 700.375 0 -40.58033 659.7947 0 -40.58033 40.58033 40.58033 0 40.58033 660.7398 0 73.41446 688.1897 0 123.2576 720.1176 0 176.7333 745.4966 0 232.9855 763.9202 0 291.1137 775.0938 0 350.1875 778.8382 0 409.2613 775.0938 0 467.3895 763.9202 0 523.6417 745.4966 0 577.1174 720.1176 0 626.9605 688.1897 0 659.7947 660.7398 0 659.7947 40.58033 0</float_array>
                    <technique_common>
                        <accessor count="46" source="#ID51" stride="3">
                            <param name="X" type="float" />
                            <param name="Y" type="float" />
                            <param name="Z" type="float" />
                        </accessor>
                    </technique_common>
                </source>
                <source id="ID49">
                    <float_array id="ID52" count="138">-0.4264121 0.5811429 -0.6931418 -0.5773503 -0.5773503 -0.5773503 -0.7085873 0.3312015 -0.6230647 0.5773503 -0.5773503 -0.5773503 -0.3496209 0.630333 -0.6931418 -0.2672333 0.6694332 -0.6931418 -0.1805681 0.6978177 -0.6931418 -0.09101245 0.7150323 -0.6931418 0 0.7208012 -0.6931418 0.09101245 0.7150323 -0.6931418 0.1805681 0.6978177 -0.6931418 0.2672333 0.6694332 -0.6931418 0.3496209 0.630333 -0.6931418 0.4264121 0.5811429 -0.6931418 0.7085873 0.3312015 -0.6230647 -0.8417678 0.3934516 0.3696251 -0.6507059 -0.6507059 0.3913613 -0.5477393 0.7464957 0.3777906 -0.4490987 0.8096818 0.3777906 -0.3432693 0.8599072 0.3777906 -0.2319452 0.8963681 0.3777906 -0.1169083 0.9184807 0.3777906 2.429408e-018 0.9258911 0.3777906 0.1169083 0.9184807 0.3777906 0.2319452 0.8963681 0.3777906 0.3432693 0.8599072 0.3777906 0.4490987 0.8096818 0.3777906 0.5477393 0.7464957 0.3777906 0.8417678 0.3934516 0.3696251 0.6507059 -0.6507059 0.3913613 2.520529e-017 -0.9238795 0.3826834 -0.3001938 -0.3001938 0.90541 -0.3987301 0.1863709 0.8979311 -0.2338038 0.3186435 0.918587 -0.1916989 0.3456146 0.918587 -0.1465253 0.3670535 0.918587 -0.09900635 0.3826169 0.918587 -0.04990257 0.3920557 0.918587 4.810754e-018 0.3952188 0.918587 0.04990257 0.3920557 0.918587 0.09900635 0.3826169 0.918587 0.1465253 0.3670535 0.918587 0.1916989 0.3456146 0.918587 0.2338038 0.3186435 0.918587 0.3987301 0.1863709 0.8979311 0.3001938 -0.3001938 0.90541</float_array>
                    <technique_common>
                        <accessor count="46" source="#ID52" stride="3">
                            <param name="X" type="float" />
                            <param name="Y" type="float" />
                            <param name="Z" type="float" />
                        </accessor>
                    </technique_common>
                </source>
                <vertices id="ID50">
                    <input semantic="POSITION" source="#ID48" />
                    <input semantic="NORMAL" source="#ID49" />
                </vertices>
                <triangles count="88" material="Material2">
                    <input offset="0" semantic="VERTEX" source="#ID50" />
                    <p>0 1 2 1 0 3 3 0 4 3 4 5 3 5 6 3 6 7 3 7 8 3 8 9 3 9 10 3 10 11 3 11 12 3 12 13 3 13 14 15 1 16 1 15 2 15 0 2 0 15 17 17 4 0 4 17 18 18 5 4 5 18 19 19 6 5 6 19 20 20 7 6 7 20 21 21 8 7 8 21 22 22 9 8 9 22 23 23 10 9 10 23 24 24 11 10 11 24 25 25 12 11 12 25 26 26 13 12 13 26 27 27 14 13 14 27 28 14 29 3 29 14 28 29 1 3 1 29 16 16 29 30 31 15 16 15 31 32 32 17 15 17 32 33 33 18 17 18 33 34 34 19 18 19 34 35 35 20 19 20 35 36 36 21 20 21 36 37 37 22 21 22 37 38 39 22 38 22 39 23 40 23 39 23 40 24 41 24 40 24 41 25 42 25 41 25 42 26 43 26 42 26 43 27 44 27 43 27 44 28 28 45 29 45 28 44 45 30 29 30 45 16 16 45 31 45 32 31 32 45 33 33 45 34 34 45 35 35 45 36 36 45 37 37 45 38 38 45 39 39 45 40 40 45 41 41 45 42 42 45 43 43 45 44</p>
                </triangles>
            </mesh>
        </geometry>
        <geometry id="ID53">
            <mesh>
                <source id="ID54">
                    <float_array id="ID57" count="90">-25.07581 674.6386 628.1489 -2.966675 567.1981 628.1489 -69.17534 650.2631 628.1489 41.86856 702.9906 628.1489 707.869 567.1981 628.1489 113.6917 725.5271 628.1489 189.244 741.8874 628.1489 267.316 751.8094 628.1489 346.6581 755.1345 628.1489 426.0001 751.8094 628.1489 504.0721 741.8874 628.1489 579.6244 725.5271 628.1489 651.4475 702.9906 628.1489 718.3919 674.6386 628.1489 762.4914 650.2631 628.1489 -69.17534 650.2631 758.227 -25.07581 674.6386 758.227 41.86856 702.9906 758.227 113.6917 725.5271 758.227 189.244 741.8874 758.227 267.316 751.8094 758.227 346.6581 755.1345 758.227 426.0001 751.8094 758.227 504.0721 741.8874 758.227 579.6244 725.5271 758.227 651.4475 702.9906 758.227 718.3919 674.6386 758.227 762.4914 650.2631 758.227 707.869 567.1981 758.227 -2.966675 567.1981 758.227</float_array>
                    <technique_common>
                        <accessor count="30" source="#ID57" stride="3">
                            <param name="X" type="float" />
                            <param name="Y" type="float" />
                            <param name="Z" type="float" />
                        </accessor>
                    </technique_common>
                </source>
                <source id="ID55">
                    <float_array id="ID58" count="90">-0.3143062 0.6460743 -0.6955571 -0.3400911 -0.7059841 -0.6212282 -0.8065026 0.1605079 -0.5690262 -0.2476514 0.673566 -0.6964033 0.3745386 -0.6945538 -0.6142604 -0.1834004 0.6931877 -0.6970331 -0.1211191 0.7063078 -0.6974664 -0.06020972 0.7138363 -0.6977195 -8.550747e-017 0.71629 -0.6978027 0.06020972 0.7138363 -0.6977195 0.1211191 0.7063078 -0.6974664 0.1834004 0.6931877 -0.6970331 0.2476514 0.673566 -0.6964033 0.3143062 0.6460743 -0.6955571 0.7953718 0.1963963 -0.5734215 -0.8065026 0.1605079 0.5690262 -0.3143062 0.6460743 0.6955571 -0.2476514 0.673566 0.6964033 -0.1834004 0.6931877 0.6970331 -0.1211191 0.7063078 0.6974664 -0.06020972 0.7138363 0.6977195 -8.550747e-017 0.71629 0.6978027 0.06020972 0.7138363 0.6977195 0.1211191 0.7063078 0.6974664 0.1834004 0.6931877 0.6970331 0.2476514 0.673566 0.6964033 0.3143062 0.6460743 0.6955571 0.7953718 0.1963963 0.5734215 0.3745386 -0.6945538 0.6142604 -0.3400911 -0.7059841 0.6212282</float_array>
                    <technique_common>
                        <accessor count="30" source="#ID58" stride="3">
                            <param name="X" type="float" />
                            <param name="Y" type="float" />
                            <param name="Z" type="float" />
                        </accessor>
                    </technique_common>
                </source>
                <vertices id="ID56">
                    <input semantic="POSITION" source="#ID54" />
                    <input semantic="NORMAL" source="#ID55" />
                </vertices>
                <triangles count="56" material="Material2">
                    <input offset="0" semantic="VERTEX" source="#ID56" />
                    <p>0 1 2 1 0 3 1 3 4 4 3 5 4 5 6 4 6 7 4 7 8 4 8 9 4 9 10 4 10 11 4 11 12 4 12 13 4 13 14 15 0 2 0 15 16 16 3 0 3 16 17 17 5 3 5 17 18 18 6 5 6 18 19 19 7 6 7 19 20 20 8 7 8 20 21 21 9 8 9 21 22 22 10 9 10 22 23 23 11 10 11 23 24 24 12 11 12 24 25 25 13 12 13 25 26 26 14 13 14 26 27 14 28 4 28 14 27 28 1 4 1 28 29 15 1 29 1 15 2 29 16 15 16 29 17 17 29 28 17 28 18 18 28 19 19 28 20 20 28 21 21 28 22 22 28 23 23 28 24 24 28 25 25 28 26 26 28 27</p>
                </triangles>
            </mesh>
        </geometry>
    </library_geometries>
    <library_materials>
        <material id="ID6" name="material">
            <instance_effect url="#ID5" />
        </material>
    </library_materials>
    <library_effects>
        <effect id="ID5">
            <profile_COMMON>
                <technique sid="COMMON">
                    <lambert>
                        <diffuse>
                            <color>1 1 1 1</color>
                        </diffuse>
                    </lambert>
                </technique>
            </profile_COMMON>
        </effect>
    </library_effects>
    <scene>
        <instance_visual_scene url="#ID1" />
    </scene>
</COLLADA>
